<svg xmlns="http://www.w3.org/2000/svg" fill="none" viewBox="0 0 20 20" width="20" height="20"><path stroke="currentColor" d="M12.77 3.897 7.587 9.078c-.344.344-.515.516-.659.708-.128.17-.238.353-.331.545-.105.216-.178.448-.324.911l-.763 2.413 2.413-.762c.463-.147.695-.22.911-.324.192-.093.375-.204.545-.332.193-.143.364-.315.708-.659l5.181-5.18m-2.5-2.5.981-.981c.34-.341.511-.512.695-.603a1.25 1.25 0 0 1 1.11 0c.184.091.354.262.695.603.34.34.511.51.602.695.174.35.174.76 0 1.11-.09.183-.261.354-.602.694l-.98.981m-2.5-2.5 2.5 2.5M16.666 17.5H3.333" stroke-linecap="round" stroke-linejoin="round" stroke-width="1.25"/></svg>